Chaos (2001)

A bourgeois couple, modern yet conventional. One night by accident, a young prostitute barges into their lives. Hounded down, beaten up, threatened, she will continue to struggle, with the help of a well off lady, first for her survival-her resurrection-then for her dignity and freedom. Stormy encounters for everyone involved.
 
Format/Info                      : Audio Video Interleave
File size                        : 699 MiB
Duration                         : 1h 47mn
Overall bit rate                 : 908 Kbps
Writing application              : VirtualDubMod 1.5.4.1 (build 2178/release)
Writing library                  : VirtualDubMod build 2178/release
Language                         : French
Subtitles                        : English(*.srt)
Genre                            : Drama

Video
ID                               : 0
Format                           : MPEG-4 Visual
Format profile                   : Advanced Simple@L5
Format settings, BVOP            : Yes
Format settings, QPel            : No
Format settings, GMC             : No warppoints
Format settings, Matrix          : Custom
Codec ID                         : XVID
Codec ID/Hint                    : XviD
Duration                         : 1h 47mn
Bit rate                         : 782 Kbps
Width                            : 464 pixels
Height                           : 272 pixels
Display aspect ratio             : 16:9
Frame rate                       : 29.970 fps
Color space                      : YUV
Chroma subsampling               : 4:2:0
Bit depth                        : 8 bits
Scan type                        : Progressive
Bits/(Pixel*Frame)               : 0.207
Stream size                      : 602 MiB (86%)
Writing library                  : XviD 1.2.1 (UTC 2008-12-04)

Audio
ID                               : 1
Format                           : MPEG Audio
Format version                   : Version 1
Format profile                   : Layer 3
Mode                             : Joint stereo
Codec ID                         : 55
Codec ID/Hint                    : MP3
Duration                         : 1h 47mn
Bit rate mode                    : Variable
Bit rate                         : 112 Kbps
Nominal bit rate                 : 128 Kbps
Channel(s)                       : 2 channels
Sampling rate                    : 48.0 KHz
Stream size                      : 86.3 MiB (12%)
Alignment                        : Aligned on interleaves
Interleave, duration             : 24 ms (0.72 video frame)
Interleave, preload duration     : 592 ms
Writing library                  : LAME3.98r
Encoding settings                : -m j -V 4 -q 2 -lowpass 17 --abr 128
 
http://leetleech.org/images/39985365511653622919.png 
http://leetleech.org/images/46763969189175204730.png 
http://leetleech.org/images/34373424294807710792.png 
http://leetleech.org/images/78016453874105455098.png 
http://leetleech.org/images/01009973119942286279.png 
http://leetleech.org/images/05735218299760678474.png
 
http://www.youtube.com/watch?v=TTyHwHC3cJs
 
http://www.imdb.com/title/tt0265116/
 
http://leetleech.org/images/97913465899887526311.png